<svg fill="none" height="18" width="106" xmlns="http://www.w3.org/2000/svg"><g fill="#ffc432"><path d="M10.017.649a1.125 1.125 0 00-2.038 0L5.803 5.287.956 6.03a1.125 1.125 0 00-.637 1.896l3.542 3.629-.84 5.138a1.125 1.125 0 001.656 1.165l4.32-2.39 4.324 2.39a1.125 1.125 0 001.656-1.167l-.84-5.136 3.542-3.629a1.125 1.125 0 00-.637-1.898l-4.847-.74zM54.017.649a1.125 1.125 0 00-2.038 0l-2.176 4.638-4.847.743a1.125 1.125 0 00-.637 1.896l3.542 3.629-.84 5.138a1.125 1.125 0 001.657 1.165l4.32-2.39 4.323 2.39a1.125 1.125 0 001.656-1.167l-.84-5.136 3.542-3.629a1.125 1.125 0 00-.637-1.898l-4.847-.74zM32.017.649a1.125 1.125 0 00-2.038 0l-2.176 4.638-4.847.743a1.125 1.125 0 00-.637 1.896l3.542 3.629-.84 5.138a1.125 1.125 0 001.656 1.165l4.32-2.39 4.324 2.39a1.125 1.125 0 001.656-1.167l-.84-5.136 3.542-3.629a1.125 1.125 0 00-.637-1.898l-4.847-.74zM76.017.649a1.125 1.125 0 00-2.038 0l-2.176 4.638-4.847.743a1.125 1.125 0 00-.637 1.896l3.542 3.629-.84 5.138a1.125 1.125 0 001.656 1.165l4.32-2.39 4.324 2.39a1.125 1.125 0 001.656-1.167l-.84-5.136 3.542-3.629a1.125 1.125 0 00-.637-1.898l-4.847-.74zM98.017.649a1.125 1.125 0 00-2.038 0l-2.176 4.638-4.847.743a1.125 1.125 0 00-.637 1.896l3.542 3.629-.84 5.138a1.125 1.125 0 001.656 1.165l4.32-2.39 4.324 2.39a1.124 1.124 0 001.656-1.167l-.84-5.136 3.542-3.629a1.13 1.13 0 00.263-1.144 1.125 1.125 0 00-.9-.754l-4.847-.74z"/></g></svg>