<svg width="217" height="37" fill="none" xmlns="http://www.w3.org/2000/svg"><g clip-path="url(#clip0_174_57)"><path d="M59.084 29.692h-8.145v-.819l1.11-.468c.486-.214.807-.433.963-.658.156-.224.234-.55.234-.979V12.59c0-.448-.078-.785-.234-1.009-.156-.224-.477-.433-.963-.628l-1.11-.468v-.819h15.326l.321 4.824h-.817l-.905-1.432c-.35-.546-.642-.95-.876-1.214-.233-.263-.486-.433-.759-.511-.272-.078-.632-.117-1.08-.117h-5.663v8.04h4.32c.448 0 .779-.084.993-.25.214-.165.428-.472.642-.92l.496-1.17h.788v6.461h-.788l-.467-1.257c-.214-.526-.433-.877-.657-1.052-.224-.176-.56-.264-1.007-.264h-4.32v5.964c0 .39.087.697.263.921.175.224.535.443 1.08.658l1.255.526v.819zM72.517 29.984c-1.46 0-2.744-.317-3.854-.95a6.501 6.501 0 01-2.569-2.66c-.603-1.14-.904-2.48-.904-4.02 0-1.111.18-2.13.54-3.055a7.182 7.182 0 011.547-2.427 6.97 6.97 0 012.335-1.593c.886-.37 1.854-.555 2.905-.555 1.46 0 2.734.317 3.824.95 1.09.633 1.941 1.525 2.554 2.675.613 1.15.92 2.494.92 4.034 0 1.54-.317 2.792-.95 3.932a7.038 7.038 0 01-2.597 2.69c-1.1.652-2.35.979-3.751.979zm0-1.433c1.226 0 2.199-.55 2.919-1.651.72-1.101 1.08-2.607 1.08-4.517 0-1.91-.36-3.479-1.08-4.59-.72-1.11-1.693-1.666-2.92-1.666-1.225 0-2.203.556-2.933 1.666-.73 1.111-1.095 2.631-1.095 4.56 0 1.93.365 3.421 1.095 4.532.73 1.11 1.708 1.666 2.934 1.666zM88.114 29.984c-1.46 0-2.744-.317-3.853-.95a6.502 6.502 0 01-2.569-2.66c-.603-1.14-.905-2.48-.905-4.02 0-1.11.18-2.13.54-3.055a7.18 7.18 0 011.547-2.426 6.968 6.968 0 012.336-1.593c.885-.37 1.853-.556 2.904-.556 1.46 0 2.734.317 3.824.95 1.09.634 1.941 1.525 2.555 2.675.613 1.15.92 2.495.92 4.034 0 1.54-.317 2.792-.95 3.932a7.036 7.036 0 01-2.598 2.69c-1.1.653-2.35.98-3.75.98zm0-1.432c1.226 0 2.2-.551 2.92-1.652.72-1.101 1.08-2.607 1.08-4.517 0-1.91-.36-3.479-1.08-4.59-.72-1.11-1.694-1.666-2.92-1.666s-2.204.556-2.934 1.667c-.73 1.11-1.094 2.63-1.094 4.56 0 1.93.365 3.42 1.094 4.531.73 1.111 1.708 1.667 2.934 1.667zM102.486 29.984c-1.226 0-2.297-.307-3.211-.92-.915-.615-1.625-1.457-2.131-2.53-.506-1.071-.76-2.27-.76-3.595 0-1.696.312-3.157.935-4.385.623-1.228 1.518-2.173 2.686-2.836 1.167-.662 2.549-.994 4.145-.994.525 0 1.051.073 1.576.22.525.146.993.345 1.401.599v-3.274c0-.585-.078-.994-.233-1.228-.156-.234-.438-.41-.847-.526l-1.08-.234v-.76l4.525-1.754.671.409v17.862c0 .506.088.867.263 1.081.175.215.506.351.992.41l1.051.116.146.79-3.941 1.55h-.642l-.817-2.398c-1.499 1.598-3.075 2.397-4.729 2.397zm1.313-2.25c.662 0 1.28-.162 1.854-.483a5.031 5.031 0 001.474-1.243V19.08c-.039-.916-.35-1.637-.934-2.163-.584-.527-1.333-.79-2.248-.79-.836 0-1.581.254-2.233.76-.652.507-1.158 1.204-1.518 2.09-.36.887-.54 1.915-.54 3.085 0 1.734.365 3.113 1.095 4.136.73 1.024 1.747 1.535 3.05 1.535zM120.561 29.692h-6.948v-1.024l1.226-.526a2.32 2.32 0 00.862-.716c.243-.322.481-.804.715-1.447l6.305-15.874 3.211-.73 6.714 16.838c.175.468.331.818.467 1.052.137.234.287.414.453.541.165.127.365.258.598.395l.964.467v1.024h-9.254v-1.024l.934-.409c.35-.195.603-.365.759-.511a.711.711 0 00.233-.541c0-.137-.024-.288-.073-.453a4.36 4.36 0 00-.218-.57l-.818-2.076h-7.268l-.759 1.93a7.909 7.909 0 00-.234.686 2.022 2.022 0 00-.088.541c0 .215.103.395.307.541.204.146.491.297.861.453l1.051.41v1.023zm2.423-15.027l-2.832 7.484h5.78l-2.948-7.484zM140.269 29.984c-1.226 0-2.291-.321-3.196-.965-.905-.643-1.601-1.495-2.087-2.557-.487-1.063-.73-2.217-.73-3.465 0-1.754.34-3.25 1.022-4.487a6.946 6.946 0 012.904-2.85c1.255-.663 2.749-.994 4.481-.994.331 0 .676.034 1.036.102.36.068.706.16 1.037.278v-1.784c0-.662-.083-1.11-.249-1.344-.165-.234-.442-.439-.831-.614l-.935-.38v-.965l5.518-2.192.875.526v17.13c0 .468.088.795.263.98.175.185.535.327 1.08.424l.963.204.176 1.024-5.051 1.93h-.759l-.934-2.427c-1.537 1.617-3.065 2.426-4.583 2.426zm2.073-3.157c.525 0 .988-.122 1.387-.366a5.421 5.421 0 001.007-.774v-6.46c-.039-.917-.278-1.609-.716-2.076-.437-.468-1.016-.702-1.736-.702-.643 0-1.217.224-1.723.672-.506.449-.895 1.072-1.167 1.871-.273.8-.409 1.725-.409 2.777 0 1.54.282 2.768.846 3.684.565.916 1.402 1.374 2.511 1.374zM174.959 29.692h-8.641v-.965l1.051-.526c.428-.254.715-.502.861-.746.146-.243.219-.638.219-1.184v-5.876c0-.74-.073-1.252-.219-1.535-.146-.282-.423-.492-.832-.628l-.963-.38v-.965l5.547-2.222.875.556v11.05c0 .546.073.94.219 1.184.146.244.433.492.861.746l1.022.526v.965zM181.611 29.984c-.954 0-1.927-.127-2.919-.38-.993-.253-1.869-.624-2.628-1.111l.468-3.946h.992l.847 1.315c.544.819 1.08 1.413 1.605 1.783.526.37 1.148.556 1.868.556.604 0 1.1-.142 1.489-.424.389-.283.584-.707.584-1.272 0-.273-.092-.54-.277-.804-.185-.263-.536-.555-1.051-.877-.516-.321-1.28-.687-2.292-1.096-1.343-.585-2.34-1.247-2.992-1.988-.652-.74-.978-1.617-.978-2.631 0-1.345.516-2.422 1.547-3.23 1.032-.81 2.394-1.213 4.087-1.213.954 0 1.902.092 2.846.277.944.185 1.747.434 2.409.746l-.409 3.654h-1.051a9.732 9.732 0 00-.642-.906c-.234-.293-.477-.595-.73-.907-.623-.72-1.391-1.081-2.306-1.081-.642 0-1.129.122-1.46.365-.331.244-.496.56-.496.95 0 .332.097.634.292.907.195.272.559.56 1.095.862.535.302 1.328.687 2.379 1.155 1.479.662 2.51 1.34 3.094 2.031.584.692.876 1.506.876 2.441 0 .936-.268 1.798-.803 2.53-.535.73-1.275 1.295-2.218 1.695-.944.4-2.02.599-3.226.599zM196.347 29.984c-1.538 0-2.9-.317-4.087-.95a6.736 6.736 0 01-2.759-2.69c-.652-1.16-.978-2.509-.978-4.049 0-1.052.2-2.041.599-2.967a7.544 7.544 0 011.678-2.44 7.815 7.815 0 012.496-1.638 7.915 7.915 0 013.051-.585c1.557 0 2.919.317 4.087.95a6.81 6.81 0 012.729 2.676c.652 1.15.978 2.504.978 4.063 0 1.442-.35 2.733-1.051 3.873a7.859 7.859 0 01-2.832 2.734c-1.187.682-2.491 1.023-3.911 1.023zm0-1.783c.934 0 1.669-.512 2.204-1.535.535-1.023.802-2.46.802-4.312 0-1.851-.267-3.323-.802-4.356s-1.27-1.55-2.204-1.55c-.934 0-1.698.512-2.233 1.535-.536 1.024-.803 2.461-.803 4.313 0 1.851.267 3.298.803 4.34.535 1.043 1.279 1.565 2.233 1.565zM213.439 29.692h-9.312v-.965l1.051-.526c.428-.254.715-.502.861-.746.146-.243.219-.638.219-1.184v-5.876c0-.72-.073-1.227-.219-1.52-.146-.292-.423-.507-.832-.643l-.963-.35v-.966l5.167-2.25.875.555v2.66a6.69 6.69 0 011.095-1.622 6 6 0 011.416-1.155c.506-.292.992-.438 1.459-.438 1.032 0 1.947.37 2.744 1.11l-.467 4.064h-1.051c-.486-.682-.904-1.15-1.255-1.403a2.036 2.036 0 00-1.226-.38c-.35 0-.715.131-1.095.394a9.257 9.257 0 00-1.24 1.067v6.753c0 .448.112.804.336 1.067.223.263.647.55 1.269.863l1.168.526v.965z" fill="#fff"/><path d="M184.232 0c-.992.258-2.272.638-3.727 1.189a38.16 38.16 0 00-5.765 2.797c-1.104.657-5.405 3.313-9.691 8.287a42.468 42.468 0 00-6.136 9.409l-1.547-3.567a5.495 5.495 0 01-.204-.555 1.307 1.307 0 01-.058-.351c0-.195.082-.375.248-.541.165-.166.413-.307.744-.424l.759-.321v-.965h-8.757v.965l.642.438c.389.253.671.473.846.658.176.185.37.53.584 1.038l5.517 11.927 2.598-1.082a50.304 50.304 0 012.326-6.89c1.46-3.463 3.513-8.33 8.193-13.067a34.544 34.544 0 0110.543-7.288A32.434 32.434 0 01184.811.35c-.219-.122-.36-.23-.579-.351z" fill="#E5B94C"/><path d="M8.933 29.692H0v-.819l1.11-.468c.505-.214.831-.433.977-.658.146-.224.22-.55.22-.979V12.59c0-.429-.074-.76-.22-.994-.146-.234-.472-.448-.978-.643L0 10.485v-.819h8.728c2.044 0 3.839.395 5.386 1.184a8.613 8.613 0 013.62 3.435c.866 1.501 1.299 3.304 1.299 5.409 0 2.104-.433 3.873-1.3 5.364a8.8 8.8 0 01-3.575 3.435c-1.518.799-3.26 1.199-5.225 1.199zM5.546 11.216v16.926H8.29c1.46 0 2.735-.346 3.825-1.038 1.09-.691 1.94-1.67 2.554-2.938.613-1.266.92-2.757.92-4.472 0-1.715-.307-3.236-.92-4.502-.613-1.267-1.474-2.247-2.584-2.938-1.109-.692-2.393-1.038-3.853-1.038H5.546zM27.304 29.984c-1.46 0-2.744-.317-3.853-.95a6.501 6.501 0 01-2.57-2.66c-.603-1.14-.904-2.48-.904-4.02 0-1.111.18-2.13.54-3.055a7.184 7.184 0 011.547-2.427 6.97 6.97 0 012.335-1.593c.886-.37 1.854-.555 2.905-.555 1.46 0 2.734.317 3.824.95 1.09.633 1.941 1.525 2.554 2.675.613 1.15.92 2.494.92 4.034 0 1.54-.317 2.792-.95 3.932a7.038 7.038 0 01-2.597 2.69c-1.1.652-2.35.979-3.751.979zm0-1.433c1.226 0 2.199-.55 2.919-1.651.72-1.101 1.08-2.607 1.08-4.517 0-1.91-.36-3.479-1.08-4.59-.72-1.11-1.693-1.666-2.92-1.666-1.225 0-2.203.556-2.933 1.666-.73 1.111-1.095 2.631-1.095 4.56 0 1.93.365 3.421 1.095 4.532.73 1.11 1.708 1.666 2.934 1.666zM41.423 37c-1.907 0-3.406-.321-4.495-.965-1.09-.643-1.635-1.549-1.635-2.718 0-.624.2-1.223.598-1.798.4-.575 1.037-1.145 1.912-1.71-.778-.195-1.342-.488-1.693-.877-.35-.39-.525-.916-.525-1.579v-.263a.96.96 0 01.03-.234l2.305-3.07c-.778-.448-1.382-1.018-1.81-1.71a4.328 4.328 0 01-.642-2.324c0-.916.273-1.754.817-2.514.545-.76 1.295-1.369 2.248-1.827.954-.458 2.034-.687 3.24-.687.623 0 1.197.049 1.723.146a6.147 6.147 0 011.43.439l4.029-.585h.788l-.117 2.105-2.948-.322c.914.858 1.372 1.969 1.372 3.333 0 .936-.268 1.769-.803 2.5-.535.73-1.275 1.31-2.219 1.739-.944.429-2.029.643-3.255.643-.973 0-1.858-.136-2.656-.41l-.817 1.375a.648.648 0 00-.03.204c0 .078.01.147.03.205 0 .331.224.614.671.848.448.234 1.1.35 1.956.35h3.97c1.654 0 2.88.303 3.678.907.798.604 1.197 1.55 1.197 2.835 0 1.17-.36 2.208-1.08 3.114-.72.906-1.708 1.608-2.963 2.105-1.255.497-2.69.745-4.306.745zm1.11-1.87c.992 0 1.877-.132 2.656-.396.778-.263 1.396-.608 1.854-1.037.457-.429.686-.926.686-1.491 0-.702-.239-1.228-.716-1.579-.476-.35-1.299-.526-2.466-.526h-4.481c-.263 0-.56-.01-.89-.03-.448.41-.779.824-.993 1.243a2.77 2.77 0 00-.321 1.272c0 .838.394 1.471 1.182 1.9.788.429 1.951.643 3.489.643zm-.73-11.782c.934 0 1.673-.322 2.218-.965.545-.643.818-1.52.818-2.63 0-1.112-.278-1.998-.832-2.661-.555-.663-1.29-.994-2.204-.994-.642 0-1.197.166-1.664.497-.467.331-.827.77-1.08 1.316-.253.545-.38 1.16-.38 1.841 0 1.072.277 1.94.832 2.602.555.663 1.319.994 2.292.994z" fill="#fff"/></g><defs><clipPath id="clip0_174_57"><path fill="#fff" d="M0 0h217v37H0z"/></clipPath></defs></svg>