<svg xmlns="http://www.w3.org/2000/svg" viewBox="0 0 487 287"><linearGradient id="a" gradientUnits="userSpaceOnUse" x1="-60.124" y1="46.763" x2="710.75" y2="257.13" gradientTransform="matrix(1 0 0 -1 0 288)"><stop offset="0" stop-color="#eadebd"/><stop offset="1" stop-color="#eadebd" stop-opacity="0"/></linearGradient><path d="M939.1-345.2c-27.3 7.1-62.5 17.6-102.5 32.8-15.9 6-83.8 32.4-158.6 77.1-30.4 18.1-148.7 91.4-266.6 228.6-76.7 89.2-130.6 179.5-168.8 259.5L200 154.4c-2.7-6.4-4.6-11.6-5.6-15.3-1.1-3.8-1.6-7-1.6-9.7 0-5.4 2.3-10.3 6.8-14.9 4.6-4.6 11.4-8.5 20.5-11.7l20.9-8.9V67.3H0v26.6L17.7 106c10.7 7 18.5 13 23.3 18.1 4.8 5.1 10.2 14.6 16.1 28.6l151.8 328.9 71.5-29.8c12-46.6 31.7-113.1 64-190C384.6 166.3 441 32 569.8-98.6c55.3-56.2 151.8-139.7 290-201 38.1-16.9 71.2-28.5 95.3-36-6.1-3.3-10-6.2-16-9.6z" fill="url(#a)"/></svg>