<svg width="20" height="32" fill="none" xmlns="http://www.w3.org/2000/svg"><path d="M2 19.094c1.115.979 2.356 1.729 3.722 2.25 1.365.52 2.793.781 4.284.781 1.49 0 2.919-.26 4.284-.781a12.185 12.185 0 003.722-2.25V32l-8.006-4L2 32V19.094z" fill="#FFC432"/><circle cx="10" cy="10" r="10" fill="#FFC432"/><path d="M15.412 8.256c-.129-.308-.342-.53-.617-.642l-.004-.001a1.066 1.066 0 00-.393-.075h-.014c-.63.01-1.273.55-1.6 1.345-.24.58-.267 1.206-.074 1.671.128.308.342.53.618.642l.003.001c.126.05.259.075.393.075.636 0 1.286-.54 1.619-1.345.236-.58.262-1.205.069-1.671zm-2.517 3.427c-.363-.22-.706-.429-.93-.803-.62-1.036-.993-1.662-1.972-1.662-.98 0-1.354.626-1.974 1.662-.225.374-.569.583-.933.804-.418.254-.85.516-1.036 1.03a1.574 1.574 0 00-.107.584c0 .839.647 1.521 1.442 1.521.41 0 .847-.143 1.31-.295.444-.146.903-.297 1.3-.297s.856.15 1.298.297c.461.151.896.295 1.308.295.794 0 1.44-.683 1.44-1.522 0-.2-.037-.398-.11-.583-.186-.516-.618-.778-1.036-1.031zM7.542 8.398c.275.349.624.54.983.54a.982.982 0 00.147-.01c.748-.112 1.214-1.033 1.061-2.1a2.484 2.484 0 00-.48-1.177c-.275-.348-.624-.54-.983-.54a.982.982 0 00-.146.012c-.748.11-1.215 1.032-1.062 2.1.064.448.235.865.48 1.175zm3.772.53a.98.98 0 00.147.01c.359 0 .707-.191.983-.54.244-.31.415-.727.48-1.176.152-1.067-.314-1.988-1.062-2.1a.982.982 0 00-.147-.01c-.358 0-.708.191-.982.539-.245.31-.417.728-.48 1.177-.153 1.067.313 1.988 1.061 2.1zm-4.66 2.27l.004-.002c.275-.112.489-.334.617-.641.193-.467.166-1.091-.073-1.672-.332-.804-.98-1.345-1.616-1.345-.134 0-.268.025-.393.075l-.003.001c-.275.111-.489.334-.617.641-.193.467-.166 1.091.073 1.672.332.804.981 1.345 1.616 1.345.134 0 .267-.026.392-.075z" fill="#B68C24"/></svg>