<svg width="22" height="21" fill="none" xmlns="http://www.w3.org/2000/svg"><g clip-path="url(#clip0_1305_91)"><path d="M12.243.758a1.333 1.333 0 00-.507-.552 1.424 1.424 0 00-1.477 0c-.22.134-.397.326-.507.552L7.092 6.17l-5.924.866c-.25.036-.484.138-.678.293a1.312 1.312 0 00-.419.587 1.259 1.259 0 00.32 1.332l4.328 4.235-1.026 5.994c-.042.244-.01.492.09.72.1.227.264.424.475.566a1.43 1.43 0 001.46.073l5.28-2.79 5.283 2.79a1.43 1.43 0 001.46-.074c.211-.143.376-.338.476-.567.1-.227.13-.477.088-.72l-1.026-5.993 4.33-4.234c.176-.172.3-.388.356-.624a1.256 1.256 0 00-.036-.71 1.312 1.312 0 00-.42-.588 1.407 1.407 0 00-.68-.293l-5.923-.863L12.243.758z" fill="#E5E5E5"/><path d="M10.998-.001c-.26 0-.516.07-.739.206-.22.134-.397.326-.507.552l-2.66 5.412-5.924.866c-.25.036-.484.138-.678.293a1.312 1.312 0 00-.419.587A1.259 1.259 0 00.39 9.247l4.329 4.234-1.026 5.994c-.042.244-.011.493.089.72.1.228.265.424.476.566a1.431 1.431 0 001.459.074l5.28-2.79V-.001z" fill="#FFC432"/></g><defs><clipPath id="clip0_1305_91"><path fill="#fff" d="M0 0h22v21H0z"/></clipPath></defs></svg>