<svg width="22" height="21" fill="none" xmlns="http://www.w3.org/2000/svg"><path d="M12.243.757a1.333 1.333 0 00-.507-.552 1.424 1.424 0 00-1.477 0c-.22.134-.397.326-.507.552l-2.66 5.412-5.924.866c-.25.036-.484.138-.678.293a1.312 1.312 0 00-.419.587c-.08.228-.093.473-.037.709.056.235.18.45.356.623l4.329 4.234-1.026 5.994c-.042.244-.011.493.089.72.1.228.265.424.476.566a1.43 1.43 0 001.459.074l5.28-2.79 5.284 2.79a1.43 1.43 0 001.46-.075c.211-.142.376-.338.476-.566.1-.228.13-.478.088-.721l-1.026-5.992 4.329-4.234c.177-.172.3-.388.357-.624a1.256 1.256 0 00-.036-.71 1.312 1.312 0 00-.42-.588 1.407 1.407 0 00-.68-.293l-5.923-.863L12.243.757z" fill="#FFC432"/></svg>